<?xml version="1.0" encoding="UTF-8"?>
<!--Generator: Apple Native CoreSVG 341-->
<!DOCTYPE svg
PUBLIC "-//W3C//DTD SVG 1.1//EN"
       "http://www.w3.org/Graphics/SVG/1.1/DTD/svg11.dtd">
<svg version="1.1" xmlns="http://www.w3.org/2000/svg" xmlns:xlink="http://www.w3.org/1999/xlink" viewBox="0 0 3300 2200">
 <!--glyph: "1001E6", point size: 100.0, font version: "20.0d10e1", template writer version: "138.0.0"-->
 <style>.monochrome-0 {-sfsymbols-motion-group:1;-sfsymbols-layer-tags:wind.snow}
.monochrome-1 {-sfsymbols-motion-group:1;-sfsymbols-layer-tags:wind.snow}
.monochrome-2 {-sfsymbols-motion-group:0;-sfsymbols-layer-tags:wind.snow}

.multicolor-0:white {-sfsymbols-motion-group:1;-sfsymbols-layer-tags:wind.snow}
.multicolor-1:white {-sfsymbols-motion-group:1;-sfsymbols-layer-tags:wind.snow}
.multicolor-2:white {-sfsymbols-motion-group:0;-sfsymbols-layer-tags:wind.snow}

.hierarchical-0:secondary {-sfsymbols-motion-group:1;-sfsymbols-layer-tags:wind.snow}
.hierarchical-1:secondary {-sfsymbols-motion-group:1;-sfsymbols-layer-tags:wind.snow}
.hierarchical-2:primary {-sfsymbols-motion-group:0;-sfsymbols-layer-tags:wind.snow}

.SFSymbolsPreviewWireframe {fill:none;opacity:1.0;stroke:black;stroke-width:0.5}
</style>
 <g id="Notes">
  <rect height="2200" id="artboard" style="fill:white;opacity:1" width="3300" x="0" y="0"/>
  <line style="fill:none;stroke:black;opacity:1;stroke-width:0.5;" x1="263" x2="3036" y1="292" y2="292"/>
  <text style="stroke:none;fill:black;font-family:sans-serif;font-size:13;font-weight:bold;" transform="matrix(1 0 0 1 263 322)">Weight/Scale Variations</text>
  <text style="stroke:none;fill:black;font-family:sans-serif;font-size:13;text-anchor:middle;" transform="matrix(1 0 0 1 559.711 322)">Ultralight</text>
  <text style="stroke:none;fill:black;font-family:sans-serif;font-size:13;text-anchor:middle;" transform="matrix(1 0 0 1 856.422 322)">Thin</text>
  <text style="stroke:none;fill:black;font-family:sans-serif;font-size:13;text-anchor:middle;" transform="matrix(1 0 0 1 1153.13 322)">Light</text>
  <text style="stroke:none;fill:black;font-family:sans-serif;font-size:13;text-anchor:middle;" transform="matrix(1 0 0 1 1449.84 322)">Regular</text>
  <text style="stroke:none;fill:black;font-family:sans-serif;font-size:13;text-anchor:middle;" transform="matrix(1 0 0 1 1746.56 322)">Medium</text>
  <text style="stroke:none;fill:black;font-family:sans-serif;font-size:13;text-anchor:middle;" transform="matrix(1 0 0 1 2043.27 322)">Semibold</text>
  <text style="stroke:none;fill:black;font-family:sans-serif;font-size:13;text-anchor:middle;" transform="matrix(1 0 0 1 2339.98 322)">Bold</text>
  <text style="stroke:none;fill:black;font-family:sans-serif;font-size:13;text-anchor:middle;" transform="matrix(1 0 0 1 2636.69 322)">Heavy</text>
  <text style="stroke:none;fill:black;font-family:sans-serif;font-size:13;text-anchor:middle;" transform="matrix(1 0 0 1 2933.4 322)">Black</text>
  <line style="fill:none;stroke:black;opacity:1;stroke-width:0.5;" x1="263" x2="3036" y1="1903" y2="1903"/>
  <g transform="matrix(0.2 0 0 0.2 263 1933)">
   <path d="m46.2402 4.15039c21.7773 0 39.4531-17.627 39.4531-39.4043s-17.6758-39.4043-39.4531-39.4043c-21.7285 0-39.4043 17.627-39.4043 39.4043s17.6758 39.4043 39.4043 39.4043Zm0-7.42188c-17.6758 0-31.9336-14.3066-31.9336-31.9824s14.2578-31.9824 31.9336-31.9824 31.9824 14.3066 31.9824 31.9824-14.3066 31.9824-31.9824 31.9824Zm-17.9688-31.9824c0 2.14844 1.51367 3.61328 3.75977 3.61328h10.498v10.5957c0 2.19727 1.46484 3.71094 3.61328 3.71094 2.24609 0 3.71094-1.51367 3.71094-3.71094v-10.5957h10.5957c2.19727 0 3.71094-1.46484 3.71094-3.61328 0-2.19727-1.51367-3.71094-3.71094-3.71094h-10.5957v-10.5469c0-2.24609-1.46484-3.75977-3.71094-3.75977-2.14844 0-3.61328 1.51367-3.61328 3.75977v10.5469h-10.498c-2.24609 0-3.75977 1.51367-3.75977 3.71094Z"/>
  </g>
  <g transform="matrix(0.2 0 0 0.2 281.506 1933)">
   <path d="m58.5449 14.5508c27.4902 0 49.8047-22.3145 49.8047-49.8047s-22.3145-49.8047-49.8047-49.8047-49.8047 22.3145-49.8047 49.8047 22.3145 49.8047 49.8047 49.8047Zm0-8.30078c-22.9492 0-41.5039-18.5547-41.5039-41.5039s18.5547-41.5039 41.5039-41.5039 41.5039 18.5547 41.5039 41.5039-18.5547 41.5039-41.5039 41.5039Zm-22.6562-41.5039c0 2.39258 1.66016 4.00391 4.15039 4.00391h14.3555v14.4043c0 2.44141 1.66016 4.15039 4.05273 4.15039 2.44141 0 4.15039-1.66016 4.15039-4.15039v-14.4043h14.4043c2.44141 0 4.15039-1.61133 4.15039-4.00391 0-2.44141-1.70898-4.15039-4.15039-4.15039h-14.4043v-14.3555c0-2.49023-1.70898-4.19922-4.15039-4.19922-2.39258 0-4.05273 1.70898-4.05273 4.19922v14.3555h-14.3555c-2.49023 0-4.15039 1.70898-4.15039 4.15039Z"/>
  </g>
  <g transform="matrix(0.2 0 0 0.2 304.924 1933)">
   <path d="m74.8535 28.3203c35.1074 0 63.623-28.4668 63.623-63.5742s-28.5156-63.623-63.623-63.623-63.5742 28.5156-63.5742 63.623 28.4668 63.5742 63.5742 63.5742Zm0-9.08203c-30.127 0-54.4922-24.3652-54.4922-54.4922s24.3652-54.4922 54.4922-54.4922 54.4922 24.3652 54.4922 54.4922-24.3652 54.4922-54.4922 54.4922Zm-28.8574-54.4922c0 2.58789 1.85547 4.39453 4.58984 4.39453h19.7266v19.7754c0 2.68555 1.85547 4.58984 4.44336 4.58984 2.68555 0 4.54102-1.85547 4.54102-4.58984v-19.7754h19.7754c2.68555 0 4.58984-1.80664 4.58984-4.39453 0-2.73438-1.85547-4.58984-4.58984-4.58984h-19.7754v-19.7266c0-2.73438-1.85547-4.63867-4.54102-4.63867-2.58789 0-4.44336 1.9043-4.44336 4.63867v19.7266h-19.7266c-2.73438 0-4.58984 1.85547-4.58984 4.58984Z"/>
  </g>
  <text style="stroke:none;fill:black;font-family:sans-serif;font-size:13;font-weight:bold;" transform="matrix(1 0 0 1 263 1953)">Design Variations</text>
  <text style="stroke:none;fill:black;font-family:sans-serif;font-size:13;" transform="matrix(1 0 0 1 263 1971)">Symbols are supported in up to nine weights and three scales.</text>
  <text style="stroke:none;fill:black;font-family:sans-serif;font-size:13;" transform="matrix(1 0 0 1 263 1989)">For optimal layout with text and other symbols, vertically align</text>
  <text style="stroke:none;fill:black;font-family:sans-serif;font-size:13;" transform="matrix(1 0 0 1 263 2007)">symbols with the adjacent text.</text>
  <line style="fill:none;stroke:#00AEEF;stroke-width:0.5;opacity:1.0;" x1="776" x2="776" y1="1919" y2="1933"/>
  <g transform="matrix(0.2 0 0 0.2 776 1933)">
   <path d="m16.5527 0.78125c2.58789 0 3.85742-0.976562 4.78516-3.71094l6.29883-17.2363h28.8086l6.29883 17.2363c0.927734 2.73438 2.19727 3.71094 4.73633 3.71094 2.58789 0 4.24805-1.5625 4.24805-4.00391 0-0.830078-0.146484-1.61133-0.537109-2.63672l-22.9004-60.9863c-1.12305-2.97852-3.125-4.49219-6.25-4.49219-3.02734 0-5.07812 1.46484-6.15234 4.44336l-22.9004 61.084c-0.390625 1.02539-0.537109 1.80664-0.537109 2.63672 0 2.44141 1.5625 3.95508 4.10156 3.95508Zm13.4766-28.3691 11.8652-32.8613h0.244141l11.8652 32.8613Z"/>
  </g>
  <line style="fill:none;stroke:#00AEEF;stroke-width:0.5;opacity:1.0;" x1="792.836" x2="792.836" y1="1919" y2="1933"/>
  <text style="stroke:none;fill:black;font-family:sans-serif;font-size:13;font-weight:bold;" transform="matrix(1 0 0 1 776 1953)">Margins</text>
  <text style="stroke:none;fill:black;font-family:sans-serif;font-size:13;" transform="matrix(1 0 0 1 776 1971)">Leading and trailing margins on the left and right side of each symbol</text>
  <text style="stroke:none;fill:black;font-family:sans-serif;font-size:13;" transform="matrix(1 0 0 1 776 1989)">can be adjusted by modifying the x-location of the margin guidelines.</text>
  <text style="stroke:none;fill:black;font-family:sans-serif;font-size:13;" transform="matrix(1 0 0 1 776 2007)">Modifications are automatically applied proportionally to all</text>
  <text style="stroke:none;fill:black;font-family:sans-serif;font-size:13;" transform="matrix(1 0 0 1 776 2025)">scales and weights.</text>
  <g transform="matrix(0.2 0 0 0.2 1289 1933)">
   <path d="m14.209 9.32617 8.49609 8.54492c4.29688 4.3457 9.22852 4.05273 13.8672-1.07422l53.4668-58.9355-4.83398-4.88281-53.0762 58.3984c-1.75781 2.00195-3.41797 2.49023-5.76172 0.146484l-5.85938-5.81055c-2.34375-2.29492-1.80664-4.00391 0.195312-5.81055l57.373-54.0039-4.88281-4.83398-57.959 54.4434c-4.93164 4.58984-5.32227 9.47266-1.02539 13.8184Zm32.0801-90.9668c-2.09961 2.05078-2.24609 4.93164-1.07422 6.88477 1.17188 1.80664 3.4668 2.97852 6.68945 2.14844 7.32422-1.70898 14.9414-2.00195 22.0703 2.68555l-2.92969 7.27539c-1.70898 4.15039-0.830078 7.08008 1.85547 9.81445l11.4746 11.5723c2.44141 2.44141 4.49219 2.53906 7.32422 2.05078l5.32227-0.976562 3.32031 3.36914-0.195312 2.7832c-0.195312 2.49023 0.439453 4.39453 2.88086 6.78711l3.80859 3.71094c2.39258 2.39258 5.46875 2.53906 7.8125 0.195312l14.5508-14.5996c2.34375-2.34375 2.24609-5.32227-0.146484-7.71484l-3.85742-3.80859c-2.39258-2.39258-4.24805-3.17383-6.64062-2.97852l-2.88086 0.244141-3.22266-3.17383 1.2207-5.61523c0.634766-2.83203-0.146484-5.0293-3.07617-7.95898l-10.9863-10.9375c-16.6992-16.6016-38.8672-16.2109-53.3203-1.75781Zm7.4707 1.85547c12.1582-8.88672 28.6133-7.37305 39.7461 3.75977l12.1582 12.0605c1.17188 1.17188 1.36719 2.09961 1.02539 3.80859l-1.61133 7.42188 7.51953 7.42188 4.93164-0.292969c1.26953-0.0488281 1.66016 0.0488281 2.63672 1.02539l2.88086 2.88086-12.207 12.207-2.88086-2.88086c-0.976562-0.976562-1.12305-1.36719-1.07422-2.68555l0.341797-4.88281-7.4707-7.42188-7.61719 1.26953c-1.61133 0.341797-2.34375 0.195312-3.56445-0.976562l-10.0098-10.0098c-1.26953-1.17188-1.41602-2.00195-0.634766-3.85742l4.39453-10.4492c-7.8125-7.27539-17.9688-10.4004-28.125-7.42188-0.78125 0.195312-1.07422-0.439453-0.439453-0.976562Z"/>
  </g>
  <text style="stroke:none;fill:black;font-family:sans-serif;font-size:13;font-weight:bold;" transform="matrix(1 0 0 1 1289 1953)">Exporting</text>
  <text style="stroke:none;fill:black;font-family:sans-serif;font-size:13;" transform="matrix(1 0 0 1 1289 1971)">Symbols should be outlined when exporting to ensure the</text>
  <text style="stroke:none;fill:black;font-family:sans-serif;font-size:13;" transform="matrix(1 0 0 1 1289 1989)">design is preserved when submitting to Xcode.</text>
  <text id="template-version" style="stroke:none;fill:black;font-family:sans-serif;font-size:13;text-anchor:end;" transform="matrix(1 0 0 1 3036 1933)">Template v.5.0</text>
  <text style="stroke:none;fill:black;font-family:sans-serif;font-size:13;text-anchor:end;" transform="matrix(1 0 0 1 3036 1951)">Requires Xcode 15 or greater</text>
  <text id="descriptive-name" style="stroke:none;fill:black;font-family:sans-serif;font-size:13;text-anchor:end;" transform="matrix(1 0 0 1 3036 1969)">Generated from wind.snow</text>
  <text style="stroke:none;fill:black;font-family:sans-serif;font-size:13;text-anchor:end;" transform="matrix(1 0 0 1 3036 1987)">Typeset at 100.0 points</text>
  <text style="stroke:none;fill:black;font-family:sans-serif;font-size:13;" transform="matrix(1 0 0 1 263 726)">Small</text>
  <text style="stroke:none;fill:black;font-family:sans-serif;font-size:13;" transform="matrix(1 0 0 1 263 1156)">Medium</text>
  <text style="stroke:none;fill:black;font-family:sans-serif;font-size:13;" transform="matrix(1 0 0 1 263 1586)">Large</text>
 </g>
 <g id="Guides">
  <g id="H-reference" style="fill:#27AAE1;stroke:none;" transform="matrix(1 0 0 1 339 696)">
   <path d="M0.993654 0L3.63775 0L29.3281-67.1323L30.0303-67.1323L30.0303-70.459L28.1226-70.459ZM11.6885-24.4799L46.9815-24.4799L46.2315-26.7285L12.4385-26.7285ZM55.1196 0L57.7637 0L30.6382-70.459L29.4326-70.459L29.4326-67.1323Z"/>
  </g>
  <line id="Baseline-S" style="fill:none;stroke:#27AAE1;opacity:1;stroke-width:0.5;" x1="263" x2="3036" y1="696" y2="696"/>
  <line id="Capline-S" style="fill:none;stroke:#27AAE1;opacity:1;stroke-width:0.5;" x1="263" x2="3036" y1="625.541" y2="625.541"/>
  <g id="H-reference" style="fill:#27AAE1;stroke:none;" transform="matrix(1 0 0 1 339 1126)">
   <path d="M0.993654 0L3.63775 0L29.3281-67.1323L30.0303-67.1323L30.0303-70.459L28.1226-70.459ZM11.6885-24.4799L46.9815-24.4799L46.2315-26.7285L12.4385-26.7285ZM55.1196 0L57.7637 0L30.6382-70.459L29.4326-70.459L29.4326-67.1323Z"/>
  </g>
  <line id="Baseline-M" style="fill:none;stroke:#27AAE1;opacity:1;stroke-width:0.5;" x1="263" x2="3036" y1="1126" y2="1126"/>
  <line id="Capline-M" style="fill:none;stroke:#27AAE1;opacity:1;stroke-width:0.5;" x1="263" x2="3036" y1="1055.54" y2="1055.54"/>
  <g id="H-reference" style="fill:#27AAE1;stroke:none;" transform="matrix(1 0 0 1 339 1556)">
   <path d="M0.993654 0L3.63775 0L29.3281-67.1323L30.0303-67.1323L30.0303-70.459L28.1226-70.459ZM11.6885-24.4799L46.9815-24.4799L46.2315-26.7285L12.4385-26.7285ZM55.1196 0L57.7637 0L30.6382-70.459L29.4326-70.459L29.4326-67.1323Z"/>
  </g>
  <line id="Baseline-L" style="fill:none;stroke:#27AAE1;opacity:1;stroke-width:0.5;" x1="263" x2="3036" y1="1556" y2="1556"/>
  <line id="Capline-L" style="fill:none;stroke:#27AAE1;opacity:1;stroke-width:0.5;" x1="263" x2="3036" y1="1485.54" y2="1485.54"/>
  <line id="right-margin-Black-S" style="fill:none;stroke:#00AEEF;stroke-width:0.5;opacity:1.0;" x1="2983.45" x2="2983.45" y1="600.785" y2="720.121"/>
  <line id="left-margin-Black-S" style="fill:none;stroke:#00AEEF;stroke-width:0.5;opacity:1.0;" x1="2883.35" x2="2883.35" y1="600.785" y2="720.121"/>
  <line id="right-margin-Regular-S" style="fill:none;stroke:#00AEEF;stroke-width:0.5;opacity:1.0;" x1="1497.99" x2="1497.99" y1="600.785" y2="720.121"/>
  <line id="left-margin-Regular-S" style="fill:none;stroke:#00AEEF;stroke-width:0.5;opacity:1.0;" x1="1401.7" x2="1401.7" y1="600.785" y2="720.121"/>
  <line id="right-margin-Ultralight-S" style="fill:none;stroke:#00AEEF;stroke-width:0.5;opacity:1.0;" x1="606.221" x2="606.221" y1="600.785" y2="720.121"/>
  <line id="left-margin-Ultralight-S" style="fill:none;stroke:#00AEEF;stroke-width:0.5;opacity:1.0;" x1="513.201" x2="513.201" y1="600.785" y2="720.121"/>
 </g>
 <g id="Symbols">
  <g id="Black-S" transform="matrix(1 0 0 1 2883.35 696)">
   <path class="monochrome-0 multicolor-0:white hierarchical-0:secondary SFSymbolsPreviewWireframe" d="M80.3223-1.12305C81.8359-1.12305 82.8125-2.39258 82.5195-3.95508L81.9336-6.93359L84.3262-4.98047C85.5469-3.90625 87.0605-4.10156 87.7441-5.41992C88.4766-6.68945 87.8906-8.30078 86.4258-8.83789L83.7402-9.76562L86.4746-10.791C87.9883-11.3281 88.5254-12.793 87.793-14.0625C87.0605-15.3809 85.4492-15.5762 84.2773-14.5508L82.0312-12.7441L82.5195-15.5762C82.8125-17.1387 81.8359-18.4082 80.3223-18.4082C78.8086-18.4082 77.7832-17.1387 78.0762-15.5762L78.5645-12.793L76.3184-14.5996C75.0977-15.5762 73.4863-15.332 72.8027-14.0625C72.0703-12.793 72.7051-11.2793 74.1699-10.7422L76.9531-9.81445L74.1211-8.78906C72.6562-8.20312 72.0703-6.64062 72.8516-5.41992C73.584-4.10156 75.0977-3.90625 76.3184-4.98047L78.5645-6.83594L78.0762-3.95508C77.7832-2.39258 78.8086-1.12305 80.3223-1.12305Z"/>
   <path class="monochrome-1 multicolor-1:white hierarchical-1:secondary SFSymbolsPreviewWireframe" d="M80.3223-63.1348C81.8359-63.1348 82.8125-64.4043 82.5195-65.9668L81.9336-68.9453L84.3262-66.9922C85.5469-65.918 87.0605-66.1133 87.7441-67.4316C88.4766-68.7012 87.8906-70.3125 86.4258-70.8496L83.7402-71.7773L86.4746-72.8027C87.9883-73.3398 88.5254-74.8047 87.793-76.0742C87.0605-77.3926 85.4492-77.5879 84.2773-76.5625L82.0312-74.7559L82.5195-77.5879C82.8125-79.1504 81.8359-80.4199 80.3223-80.4199C78.8086-80.4199 77.7832-79.1504 78.0762-77.5879L78.5645-74.8047L76.3184-76.6113C75.0977-77.5879 73.4863-77.3438 72.8027-76.0742C72.0703-74.8047 72.7051-73.291 74.1699-72.7539L76.9531-71.8262L74.1211-70.8008C72.6562-70.2148 72.0703-68.6523 72.8516-67.4316C73.584-66.1133 75.0977-65.918 76.3184-66.9922L78.5645-68.8477L78.0762-65.9668C77.7832-64.4043 78.8086-63.1348 80.3223-63.1348Z"/>
   <path class="monochrome-2 multicolor-2:white hierarchical-2:primary SFSymbolsPreviewWireframe" d="M15.7227-46.7773C21.2402-48.3398 26.9531-49.1211 32.4219-49.1211C39.209-49.1211 44.4824-48.0957 51.123-48.0957C58.6426-48.0957 64.209-53.4668 64.209-60.7422C64.209-67.9199 58.7402-73.3398 51.6113-73.3398C47.0215-73.3398 42.5293-70.6543 40.3809-66.5527C39.209-64.3066 39.7461-61.8652 41.7969-60.5957C43.9941-59.2285 46.7773-60.0586 48.1445-62.5C48.8281-63.7207 50.2441-64.5508 51.6113-64.5508C53.9062-64.5508 55.4199-63.0859 55.4199-60.7422C55.4199-58.3496 53.8086-56.8848 51.123-56.8848C45.166-56.8848 39.5996-57.9102 32.4219-57.9102C26.2695-57.9102 19.6777-56.9336 13.1836-55.2246C10.6445-54.541 9.27734-52.1484 9.96094-49.707C10.6445-47.2168 13.0371-45.9961 15.7227-46.7773ZM76.5625-26.3672C86.377-26.3672 93.5547-32.9102 93.5547-41.8457C93.5547-50.5859 86.8652-57.2266 78.1738-57.2266C71.9238-57.2266 66.0156-53.2715 63.7695-47.5098C62.8418-45.1172 63.6719-42.627 65.8691-41.6992C68.2617-40.6738 70.9473-41.7969 72.0215-44.4336C72.998-46.7773 75.5859-48.4375 78.1738-48.4375C81.9824-48.4375 84.7656-45.7031 84.7656-41.8457C84.7656-37.8418 81.543-35.1562 76.5625-35.1562C65.0879-35.1562 51.8066-41.7969 36.3281-41.7969C28.2715-41.7969 20.6055-40.5762 13.1348-38.2324C10.5957-37.4023 9.27734-35.1074 9.96094-32.7148C10.6934-30.1758 13.1836-28.9551 15.8203-29.8828C22.4121-32.0801 29.0527-33.0078 36.3281-33.0078C51.123-33.0078 62.9395-26.3672 76.5625-26.3672ZM51.1719 2.7832C58.2031 2.7832 63.5254-2.58789 63.5254-9.7168C63.5254-19.9707 53.0273-25.6836 34.8145-25.6836C27.7832-25.6836 19.9707-24.3652 13.1348-22.168C10.5957-21.3379 9.27734-19.043 9.96094-16.6504C10.6934-14.1113 13.1836-12.8906 15.8203-13.8184C21.7773-15.8691 28.2227-16.8945 34.8145-16.8945C47.2168-16.8945 54.7363-14.0137 54.7363-9.7168C54.7363-7.42188 53.3203-6.00586 51.1719-6.00586C49.6094-6.00586 48.3398-6.93359 47.4609-8.69141C46.3379-10.9863 43.7988-11.8652 41.5527-10.791C39.3066-9.7168 38.4766-7.03125 39.6973-4.54102C41.8457-0.146484 46.2402 2.7832 51.1719 2.7832Z"/>
  </g>
  <g id="Regular-S" transform="matrix(1 0 0 1 1401.7 696)">
   <path class="monochrome-0 multicolor-0:white hierarchical-0:secondary SFSymbolsPreviewWireframe" d="M76.3184-6.39648C77.1973-6.39648 77.9297-7.17773 77.832-8.10547L77.5879-11.084L80.0781-9.375C80.7129-8.93555 81.7871-9.08203 82.2754-9.81445C82.8125-10.5957 82.4707-11.7188 81.543-12.0605L78.8574-13.3789L81.6406-14.7461C82.4219-15.1367 82.7637-16.1133 82.3242-16.9434C81.9336-17.6758 80.7617-17.9199 80.0293-17.4316L77.5879-15.6738L77.8809-18.6035C77.9785-19.5312 77.2461-20.3613 76.3184-20.3613C75.3906-20.3613 74.6582-19.6289 74.7559-18.6523L75-15.625L72.4609-17.4316C71.7285-17.8711 70.752-17.7246 70.3125-16.9434C69.8242-16.1133 70.1172-15.1367 70.9473-14.7461L73.6816-13.3789L70.9961-12.0605C70.1172-11.7188 69.7754-10.6934 70.2637-9.81445C70.6543-9.13086 71.7285-8.88672 72.4609-9.375L75-11.084L74.8047-8.10547C74.7559-7.12891 75.4395-6.39648 76.3184-6.39648Z"/>
   <path class="monochrome-1 multicolor-1:white hierarchical-1:secondary SFSymbolsPreviewWireframe" d="M76.3184-62.1094C77.1973-62.1094 77.9297-62.8906 77.832-63.7695L77.5879-66.7969L80.0781-65.0391C80.7129-64.5996 81.7871-64.7949 82.2754-65.5273C82.8125-66.3086 82.4707-67.4316 81.543-67.7734L78.8574-69.0918L81.6406-70.4102C82.4219-70.8008 82.7637-71.8262 82.3242-72.6074C81.9336-73.3398 80.7617-73.6328 80.0293-73.0957L77.5879-71.3867L77.8809-74.3164C77.9785-75.2441 77.2461-76.0254 76.3184-76.0254C75.3906-76.0254 74.6582-75.3418 74.7559-74.3652L75-71.3379L72.4609-73.0957C71.7285-73.584 70.752-73.3887 70.3125-72.6074C69.8242-71.8262 70.1172-70.8008 70.9473-70.4102L73.6816-69.0918L70.9961-67.7734C70.1172-67.4316 69.7754-66.4062 70.2637-65.5273C70.6543-64.7949 71.7285-64.5508 72.4609-65.0391L75-66.7969L74.8047-63.7695C74.7559-62.8418 75.4395-62.1094 76.3184-62.1094Z"/>
   <path class="monochrome-2 multicolor-2:white hierarchical-2:primary SFSymbolsPreviewWireframe" d="M13.7207-46.1426C19.2871-47.8027 25-48.584 30.3223-48.584C37.1094-48.584 42.2852-47.5586 48.6816-47.5586C55.8594-47.5586 60.2051-52.4414 60.2051-58.6426C60.2051-65.1367 55.2734-69.6777 49.2188-69.6777C44.9219-69.6777 41.0645-67.0898 39.2578-63.5742C38.5254-62.1582 38.7207-60.4492 40.2344-59.6191C41.6016-58.8867 43.3594-59.2773 44.3359-61.0352C45.166-62.6953 47.1191-64.0137 49.2188-64.0137C52.1484-64.0137 54.5898-62.0117 54.5898-58.6426C54.5898-55.3223 52.2949-53.2227 48.6816-53.2227C42.6758-53.2227 37.3047-54.248 30.3223-54.248C24.0234-54.248 17.7734-53.2227 12.0117-51.5625C10.2051-51.0254 9.47266-49.4629 9.91211-47.9492C10.3516-46.4844 11.7676-45.5566 13.7207-46.1426ZM73.1445-27.8809C82.1289-27.8809 88.5742-33.6914 88.5742-41.748C88.5742-49.8535 82.4219-55.5664 74.7559-55.5664C67.7734-55.5664 62.5977-50.8301 61.6211-44.4336C61.3281-42.627 62.3047-41.2109 63.8672-40.9668C65.4785-40.7227 66.8945-41.6992 67.2852-43.7988C67.9199-47.5586 71.0938-49.9512 74.7559-49.9512C79.2969-49.9512 82.959-46.6797 82.959-41.748C82.959-36.8652 79.0527-33.4961 73.1445-33.4961C61.5723-33.4961 49.0723-40.1367 33.7891-40.1367C26.0254-40.1367 18.7988-38.9648 12.0117-36.6211C10.2539-36.0352 9.47266-34.5215 9.91211-33.0078C10.3516-31.4941 11.8164-30.5664 13.7207-31.25C19.9707-33.4473 26.416-34.5215 33.7891-34.5215C49.0723-34.5215 60.2051-27.8809 73.1445-27.8809ZM48.7305-0.732422C54.7852-0.732422 59.5215-5.17578 59.5215-11.6699C59.5215-20.8984 50.2441-26.0254 32.9102-26.0254C26.0254-26.0254 18.457-24.8047 12.0117-22.5586C10.2539-21.9727 9.47266-20.459 9.91211-18.9453C10.3516-17.4316 11.8164-16.5039 13.7207-17.1875C19.7266-19.2383 26.2207-20.4102 32.9102-20.4102C46.6797-20.4102 53.9062-16.9922 53.9062-11.6699C53.9062-8.30078 51.5625-6.34766 48.7305-6.34766C45.8496-6.34766 44.2383-8.34961 43.7012-11.377C43.4082-12.9883 42.2852-14.3066 40.4297-14.1602C38.4277-14.0137 37.6953-12.3535 37.9395-10.6445C38.623-5.22461 42.627-0.732422 48.7305-0.732422Z"/>
  </g>
  <g id="Ultralight-S" transform="matrix(1 0 0 1 513.201 696)">
   <path class="monochrome-0 multicolor-0:white hierarchical-0:secondary SFSymbolsPreviewWireframe" d="M76.727-9.21189C77.3789-9.21189 77.7026-9.76609 77.6958-10.4214L77.5879-14.4443L80.9863-12.3266C81.5757-11.978 82.1958-11.9883 82.5478-12.5845C82.8579-13.1387 82.5615-13.6714 81.9517-14.0132L78.4487-15.9219L81.9585-17.834C82.5127-18.1338 82.8545-18.7016 82.5059-19.3047C82.2061-19.8555 81.5791-19.8725 80.9829-19.5205L77.5879-17.3994L77.6992-21.4189C77.7061-22.0742 77.3823-22.6318 76.727-22.6318C76.0718-22.6318 75.7934-22.081 75.7549-21.4223L75.8628-17.396L72.4609-19.5205C71.8647-19.8691 71.2061-19.9043 70.9028-19.3047C70.5962-18.7016 70.8892-18.1792 71.4922-17.834L74.9985-15.9219L71.4956-14.0586C70.8892-13.7168 70.5474-13.1455 70.8994-12.5845C71.2446-12.0371 71.8647-12.0654 72.4609-12.372L75.8628-14.4897L75.7583-10.4214C75.7549-9.76267 76.0752-9.21189 76.727-9.21189Z"/>
   <path class="monochrome-1 multicolor-1:white hierarchical-1:secondary SFSymbolsPreviewWireframe" d="M76.727-60.4292C77.3789-60.4292 77.7026-60.9834 77.6958-61.6353L77.5879-65.6162L80.9863-63.5405C81.5757-63.1919 82.1958-63.2056 82.5478-63.8018C82.8579-64.356 82.5615-64.8887 81.9517-65.2305L78.4487-67.1392L81.9585-69.0479C82.5127-69.3477 82.8545-69.919 82.5059-70.5186C82.2061-71.0694 81.5791-71.0899 80.9829-70.7344L77.5879-68.6167L77.6992-72.6362C77.7061-73.2915 77.3823-73.8457 76.727-73.8457C76.0718-73.8457 75.7934-73.2984 75.7549-72.6397L75.8628-68.6133L72.4609-70.7344C71.8647-71.0864 71.2061-71.1182 70.9028-70.5186C70.5962-69.919 70.8892-69.3931 71.4922-69.0479L74.9985-67.1392L71.4956-65.2759C70.8892-64.9341 70.5474-64.3628 70.8994-63.8018C71.2446-63.251 71.8647-63.2339 72.4609-63.5859L75.8628-65.6616L75.7583-61.6353C75.7549-60.98 76.0752-60.4292 76.727-60.4292Z"/>
   <path class="monochrome-2 multicolor-2:white hierarchical-2:primary SFSymbolsPreviewWireframe" d="M11.2686-46.2334C16.3809-48.4839 22.23-49.7646 28.0064-49.7646C36.3374-49.7646 41.3316-48.2397 48.9995-48.2397C54.7241-48.2397 58.7066-52.1235 58.7066-57.5073C58.7066-62.6392 54.8647-66.7715 49.6274-66.7715C44.8311-66.7715 41.1553-63.3662 40.4385-59.2149C40.2964-58.5708 40.7187-58.0879 41.3696-58.0298C41.874-58.0239 42.2241-58.3691 42.3833-58.9009C43.0318-62.105 45.8477-64.6948 49.6274-64.6948C53.7378-64.6948 56.6787-61.4668 56.6787-57.5073C56.6787-53.2334 53.6118-50.3164 48.9995-50.3164C41.2681-50.3164 36.669-51.7959 28.0064-51.7959C21.9346-51.7959 15.73-50.4072 10.4224-48.0205C9.8418-47.7559 9.6543-47.2378 9.8667-46.6777C10.0791-46.2119 10.6323-45.9653 11.2686-46.2334ZM73.0083-29.9697C81.7202-29.9697 87.0757-35.0083 87.0757-42.0659C87.0757-48.6729 81.877-54.0679 75.1645-54.0679C68.5908-54.0679 63.6875-48.9683 63.165-42.8443C63.0991-42.2183 63.5762-41.7104 64.1396-41.6934C64.7065-41.6763 65.1235-42.0625 65.1963-42.6636C65.6494-47.6948 69.686-52.04 75.1645-52.04C80.75-52.04 85.0478-47.5425 85.0478-42.0659C85.0478-36.1387 80.5058-31.9976 73.0083-31.9976C60.7549-31.9976 47.937-38.6382 32.3359-38.6382C24.0728-38.6382 17.1187-37.0576 10.4224-34.396C9.89063-34.1734 9.6543-33.5679 9.8667-33.0532C10.0791-32.4932 10.6358-32.292 11.2232-32.5669C17.5186-35.6269 24.3272-36.6103 32.3359-36.6103C47.5737-36.6103 60.1597-29.9697 73.0083-29.9697ZM49.1392-3.77488C54.1948-3.77488 58.023-7.67332 58.023-12.9414C58.023-20.9893 49.2451-25.5259 33.6367-25.5259C25.7075-25.5259 17.1401-23.6694 10.4678-21.2417C9.89063-21.0645 9.6543-20.4136 9.8667-19.8989C10.0791-19.4297 10.6358-19.1377 11.2232-19.3672C17.7739-21.9629 26.0391-23.4526 33.6367-23.4526C47.9512-23.4526 55.9951-19.5351 55.9951-12.9414C55.9951-8.80029 53.061-5.84815 49.1392-5.84815C45.4409-5.84815 42.6943-8.12256 42.1572-12.0581C42.0913-12.6704 41.6494-13.126 41.02-13.1611C40.3804-13.1509 39.9658-12.5352 40.0737-11.916C40.7119-6.85936 44.3525-3.77488 49.1392-3.77488Z"/>
  </g>
 </g>
</svg>
